<svg width="1217" height="144" viewBox="0 0 1217 144" fill="none" xmlns="http://www.w3.org/2000/svg">
<path fill-rule="evenodd" clip-rule="evenodd" d="M689.94 138.919C695.989 138.919 701.41 134.744 702.531 128.491C703.697 121.989 704.307 115.279 704.307 108.42C704.307 48.9711 658.493 0.777901 601.98 0.777901C545.466 0.777901 499.653 48.9711 499.653 108.42C499.653 115.279 500.263 121.989 501.429 128.491C502.55 134.744 507.971 138.919 514.019 138.919H689.94Z" fill="#FC7A1D"/>
<g filter="url(#filter0_d_4002_355)">
<path d="M4.44836 132.097V36.5921H90.2891V62.856H35.9423V75.8174H87.9015V98.5567H35.9423V132.097H4.44836Z" fill="black"/>
<path d="M99.6123 132.097V36.5921H131.106V132.097H99.6123Z" fill="black"/>
<path d="M239.672 132.097H208.747L195.785 107.425H171.909V132.097H140.415V36.5921H195.103C221.594 36.5921 236.489 47.9618 236.489 73.0887C236.489 85.9364 230.69 95.0321 222.618 100.717L239.672 132.097ZM171.909 62.7423V83.8898H192.943C200.902 83.8898 204.995 80.0242 204.995 73.3161C204.995 66.608 200.902 62.7423 192.943 62.7423H171.909Z" fill="black"/>
<path d="M289.318 135.281C256.346 135.167 240.77 124.934 241.566 100.148H269.876C270.217 106.629 275.675 110.608 289.318 110.722C301.37 110.836 306.941 107.425 306.941 102.991C306.941 99.921 305.236 96.7375 295.913 95.3732L283.633 93.4403C265.556 90.4842 243.84 88.324 243.84 63.8793C243.84 45.0057 259.189 33.4086 289.546 33.4086C316.946 33.4086 336.047 41.0263 335.479 68.3134H307.396C306.259 61.9464 300.915 57.9671 288.863 57.9671C278.403 57.9671 274.083 61.1506 274.083 65.471C274.083 68.1997 275.788 71.4969 283.065 72.6339L293.184 74.3393C312.171 77.5228 338.208 78.0913 338.208 104.241C338.208 125.048 322.063 135.394 289.318 135.281Z" fill="black"/>
<path d="M441.666 36.5921V62.856H407.33V132.097H375.836V62.856H341.5V36.5921H441.666Z" fill="black"/>
</g>
<path d="M762.861 132.097V36.5921H794.355V105.833H845.291V132.097H762.861Z" fill="black"/>
<path d="M854.561 132.097V36.5921H886.055V132.097H854.561Z" fill="black"/>
<path d="M998.145 79.342V132.097H981.318L980.863 119.477C974.269 128.573 962.331 135.281 945.504 135.281C916.17 135.281 893.658 114.929 893.658 84.3446C893.658 53.7603 915.033 33.4086 948.232 33.4086C970.858 33.4086 993.938 44.3235 997.69 70.0189H966.424C964.491 65.2436 958.238 60.5821 948.915 60.5821C934.816 60.5821 924.925 69.9052 924.925 84.3446C924.925 98.7841 935.044 108.107 948.005 108.107C952.667 108.107 964.605 106.857 967.788 95.7143H946.754V79.342H998.145Z" fill="black"/>
<path d="M1076.54 36.5921H1108.03V132.097H1076.54V97.5334H1039.48V132.097H1007.98V36.5921H1039.48V71.1558H1076.54V36.5921Z" fill="black"/>
<path d="M1217 36.5921V62.856H1182.66V132.097H1151.17V62.856H1116.83V36.5921H1217Z" fill="black"/>
<defs>
<filter id="filter0_d_4002_355" x="0.448357" y="33.4086" width="445.218" height="109.873" filterUnits="userSpaceOnUse" color-interpolation-filters="sRGB">
<feFlood flood-opacity="0" result="BackgroundImageFix"/>
<feColorMatrix in="SourceAlpha" type="matrix" values="0 0 0 0 0 0 0 0 0 0 0 0 0 0 0 0 0 0 127 0" result="hardAlpha"/>
<feOffset dy="4"/>
<feGaussianBlur stdDeviation="2"/>
<feComposite in2="hardAlpha" operator="out"/>
<feColorMatrix type="matrix" values="0 0 0 0 0 0 0 0 0 0 0 0 0 0 0 0 0 0 0.25 0"/>
<feBlend mode="normal" in2="BackgroundImageFix" result="effect1_dropShadow_4002_355"/>
<feBlend mode="normal" in="SourceGraphic" in2="effect1_dropShadow_4002_355" result="shape"/>
</filter>
</defs>
</svg>
